<?xml version="1.0" encoding="UTF-8" standalone="no"?>
<!DOCTYPE svg PUBLIC "-//W3C//DTD SVG 1.1//EN" "http://www.w3.org/Graphics/SVG/1.1/DTD/svg11.dtd">
<svg width="90px" height="380px" version="1.1" xmlns="http://www.w3.org/2000/svg" xmlns:xlink="http://www.w3.org/1999/xlink" xml:space="preserve" xmlns:serif="http://www.serif.com/" style="fill-rule:evenodd;clip-rule:evenodd;stroke-linejoin:round;stroke-miterlimit:1.41421;">
    <g>
        <rect x="-0.174" y="0" width="90.5" height="380.504" style="fill:rgb(32,32,32);"/>
        <path d="M19.296,251.53c0,-1.068 -0.66,-1.62 -1.92,-1.728l-0.852,-0.072c-0.6,-0.06 -0.84,-0.276 -0.84,-0.696c0,-0.468 0.36,-0.78 1.104,-0.78c0.576,0 1.116,0.12 1.5,0.444l0.768,-0.78c-0.564,-0.492 -1.332,-0.684 -2.256,-0.684c-1.272,0 -2.292,0.66 -2.292,1.86c0,1.068 0.648,1.572 1.8,1.68l0.972,0.084c0.588,0.06 0.816,0.3 0.816,0.72c0,0.576 -0.576,0.84 -1.332,0.84c-0.6,0 -1.26,-0.132 -1.752,-0.636l-0.804,0.804c0.72,0.708 1.56,0.876 2.556,0.876c1.452,0 2.532,-0.66 2.532,-1.932Z" style="fill:white;fill-rule:nonzero;"/>
        <path d="M22.008,253.39l0,-6.084l-1.224,0l0,6.084l1.224,0Zm0.036,-7.284l0,-1.296l-1.296,0l0,1.296l1.296,0Z" style="fill:white;fill-rule:nonzero;"/>
        <path d="M28.884,253.39l0,-3.888c0,-0.684 -0.144,-1.26 -0.612,-1.716c-0.36,-0.348 -0.876,-0.552 -1.5,-0.552c-0.612,0 -1.2,0.228 -1.62,0.684l0,-0.612l-1.2,0l0,6.084l1.224,0l0,-3.708c0,-0.936 0.576,-1.356 1.26,-1.356c0.684,0 1.224,0.408 1.224,1.356l0,3.708l1.224,0Z" style="fill:white;fill-rule:nonzero;"/>
        <path d="M35.616,250.702l0,-0.516c0,-1.776 -0.948,-2.952 -2.58,-2.952c-1.56,0 -2.58,1.128 -2.58,3.108c0,2.316 1.212,3.12 2.736,3.12c1.068,0 1.656,-0.324 2.28,-0.948l-0.78,-0.732c-0.432,0.432 -0.792,0.624 -1.476,0.624c-1.008,0 -1.548,-0.648 -1.548,-1.704l3.948,0Zm-1.212,-0.852l-2.736,0c0.012,-0.372 0.036,-0.564 0.156,-0.828c0.204,-0.456 0.624,-0.768 1.212,-0.768c0.576,0 0.996,0.312 1.2,0.768c0.12,0.264 0.144,0.456 0.168,0.828Z" style="fill:white;fill-rule:nonzero;"/>
        <path d="M32.38,198.654l0,-6.048l-1.188,0l0,0.648c-0.456,-0.552 -0.948,-0.72 -1.596,-0.72c-0.612,0 -1.128,0.192 -1.464,0.528c-0.588,0.588 -0.684,1.44 -0.684,2.472c0,1.032 0.096,1.884 0.684,2.472c0.336,0.336 0.84,0.54 1.452,0.54c0.624,0 1.128,-0.168 1.572,-0.696l0,0.78c0,0.816 -0.396,1.548 -1.428,1.548c-0.6,0 -0.936,-0.18 -1.32,-0.54l-0.78,0.78c0.636,0.588 1.224,0.804 2.148,0.804c1.62,0 2.604,-1.08 2.604,-2.568Zm-1.224,-3.12c0,0.96 -0.132,1.908 -1.236,1.908c-1.104,0 -1.248,-0.948 -1.248,-1.908c0,-0.96 0.144,-1.908 1.248,-1.908c1.104,0 1.236,0.948 1.236,1.908Z" style="fill:white;fill-rule:nonzero;"/>
        <path d="M38.8,198.69l0,-4.068c0,-1.368 -0.828,-2.088 -2.508,-2.088c-1.02,0 -1.608,0.216 -2.172,0.888l0.792,0.756c0.348,-0.432 0.684,-0.6 1.332,-0.6c0.96,0 1.332,0.36 1.332,1.14l0,0.432l-1.596,0c-1.404,0 -2.112,0.732 -2.112,1.752c0,0.516 0.168,0.984 0.48,1.308c0.372,0.372 0.876,0.552 1.632,0.552c0.756,0 1.176,-0.18 1.62,-0.624l0,0.552l1.2,0Zm-1.224,-2.196c0,0.432 -0.072,0.72 -0.264,0.9c-0.324,0.3 -0.672,0.348 -1.104,0.348c-0.804,0 -1.152,-0.3 -1.152,-0.864c0,-0.564 0.372,-0.876 1.116,-0.876l1.404,0l0,0.492Z" style="fill:white;fill-rule:nonzero;"/>
        <path d="M43.228,198.69l0,-1.044l-0.504,0c-0.456,0 -0.672,-0.264 -0.672,-0.708l0,-3.396l1.176,0l0,-0.936l-1.176,0l0,-1.74l-1.224,0l0,1.74l-0.696,0l0,0.936l0.696,0l0,3.456c0,0.876 0.528,1.692 1.668,1.692l0.732,0Z" style="fill:white;fill-rule:nonzero;"/>
        <path d="M49.576,196.002l0,-0.516c0,-1.776 -0.948,-2.952 -2.58,-2.952c-1.56,0 -2.58,1.128 -2.58,3.108c0,2.316 1.212,3.12 2.736,3.12c1.068,0 1.656,-0.324 2.28,-0.948l-0.78,-0.732c-0.432,0.432 -0.792,0.624 -1.476,0.624c-1.008,0 -1.548,-0.648 -1.548,-1.704l3.948,0Zm-1.212,-0.852l-2.736,0c0.012,-0.372 0.036,-0.564 0.156,-0.828c0.204,-0.456 0.624,-0.768 1.212,-0.768c0.576,0 0.996,0.312 1.2,0.768c0.12,0.264 0.144,0.456 0.168,0.828Z" style="fill:white;fill-rule:nonzero;"/>
        <path d="M55.3,198.69l0,-6.084l-1.224,0l0,6.084l1.224,0Zm0.036,-7.284l0,-1.296l-1.296,0l0,1.296l1.296,0Z" style="fill:white;fill-rule:nonzero;"/>
        <path d="M62.176,198.69l0,-3.888c0,-0.684 -0.144,-1.26 -0.612,-1.716c-0.36,-0.348 -0.876,-0.552 -1.5,-0.552c-0.612,0 -1.2,0.228 -1.62,0.684l0,-0.612l-1.2,0l0,6.084l1.224,0l0,-3.708c0,-0.936 0.576,-1.356 1.26,-1.356c0.684,0 1.224,0.408 1.224,1.356l0,3.708l1.224,0Z" style="fill:white;fill-rule:nonzero;"/>
        <path d="M22.624,32.154l0,-0.936l-1.212,0l0,-0.768c0,-0.444 0.216,-0.708 0.672,-0.708l0.54,0l0,-1.044l-0.768,0c-1.14,0 -1.668,0.816 -1.668,1.692l0,0.828l-0.696,0l0,0.936l0.696,0l0,5.148l1.224,0l0,-5.148l1.212,0Z" style="fill:white;fill-rule:nonzero;"/>
        <path d="M28.204,31.722c-0.42,-0.42 -0.864,-0.576 -1.452,-0.576c-0.684,0 -1.308,0.3 -1.62,0.732l0,-0.66l-1.2,0l0,6.084l1.224,0l0,-3.696c0,-0.84 0.552,-1.368 1.212,-1.368c0.42,0 0.636,0.132 0.912,0.408l0.924,-0.924Z" style="fill:white;fill-rule:nonzero;"/>
        <path d="M33.688,34.614l0,-0.516c0,-1.776 -0.948,-2.952 -2.58,-2.952c-1.56,0 -2.58,1.128 -2.58,3.108c0,2.316 1.212,3.12 2.736,3.12c1.068,0 1.656,-0.324 2.28,-0.948l-0.78,-0.732c-0.432,0.432 -0.792,0.624 -1.476,0.624c-1.008,0 -1.548,-0.648 -1.548,-1.704l3.948,0Zm-1.212,-0.852l-2.736,0c0.012,-0.372 0.036,-0.564 0.156,-0.828c0.204,-0.456 0.624,-0.768 1.212,-0.768c0.576,0 0.996,0.312 1.2,0.768c0.12,0.264 0.144,0.456 0.168,0.828Z" style="fill:white;fill-rule:nonzero;"/>
        <path d="M35.02,34.254c0,0.996 0.096,1.98 0.684,2.58c0.336,0.336 0.852,0.54 1.476,0.54c0.648,0 1.152,-0.156 1.596,-0.696l0,3.084l1.224,0l0,-8.544l-1.2,0l0,0.648c-0.456,-0.552 -0.96,-0.72 -1.608,-0.72c-0.624,0 -1.152,0.204 -1.488,0.54c-0.588,0.6 -0.684,1.572 -0.684,2.568Zm1.224,0c0,-1.08 0.156,-2.016 1.26,-2.016c1.116,0 1.272,0.936 1.272,2.016c0,1.08 -0.156,2.028 -1.272,2.028c-1.104,0 -1.26,-0.948 -1.26,-2.028Z" style="fill:white;fill-rule:nonzero;"/>
        <path d="M46.816,37.302l0,-6.084l-1.224,0l0,3.708c0,0.936 -0.576,1.356 -1.26,1.356c-0.684,0 -1.224,-0.408 -1.224,-1.356l0,-3.708l-1.224,0l0,3.888c0,0.684 0.144,1.26 0.612,1.716c0.36,0.348 0.876,0.552 1.5,0.552c0.612,0 1.2,-0.228 1.62,-0.684l0,0.612l1.2,0Z" style="fill:white;fill-rule:nonzero;"/>
        <path d="M53.608,34.614l0,-0.516c0,-1.776 -0.948,-2.952 -2.58,-2.952c-1.56,0 -2.58,1.128 -2.58,3.108c0,2.316 1.212,3.12 2.736,3.12c1.068,0 1.656,-0.324 2.28,-0.948l-0.78,-0.732c-0.432,0.432 -0.792,0.624 -1.476,0.624c-1.008,0 -1.548,-0.648 -1.548,-1.704l3.948,0Zm-1.212,-0.852l-2.736,0c0.012,-0.372 0.036,-0.564 0.156,-0.828c0.204,-0.456 0.624,-0.768 1.212,-0.768c0.576,0 0.996,0.312 1.2,0.768c0.12,0.264 0.144,0.456 0.168,0.828Z" style="fill:white;fill-rule:nonzero;"/>
        <path d="M60.16,37.302l0,-3.888c0,-0.684 -0.144,-1.26 -0.612,-1.716c-0.36,-0.348 -0.876,-0.552 -1.5,-0.552c-0.612,0 -1.2,0.228 -1.62,0.684l0,-0.612l-1.2,0l0,6.084l1.224,0l0,-3.708c0,-0.936 0.576,-1.356 1.26,-1.356c0.684,0 1.224,0.408 1.224,1.356l0,3.708l1.224,0Z" style="fill:white;fill-rule:nonzero;"/>
        <path d="M66.448,36.51l-0.84,-0.804c-0.384,0.42 -0.684,0.576 -1.164,0.576c-0.468,0 -0.864,-0.192 -1.128,-0.54c-0.264,-0.336 -0.36,-0.78 -0.36,-1.488c0,-0.708 0.096,-1.14 0.36,-1.476c0.264,-0.348 0.66,-0.54 1.128,-0.54c0.48,0 0.78,0.156 1.164,0.576l0.84,-0.816c-0.576,-0.612 -1.164,-0.852 -2.004,-0.852c-1.368,0 -2.712,0.828 -2.712,3.108c0,2.28 1.344,3.12 2.712,3.12c0.84,0 1.428,-0.252 2.004,-0.864Z" style="fill:white;fill-rule:nonzero;"/>
        <path d="M72.46,31.218l-1.308,0l-1.416,4.284l-1.452,-4.284l-1.296,0l2.124,5.796l-0.336,0.948c-0.18,0.492 -0.36,0.648 -0.876,0.648l-0.312,0l0,1.104l0.492,0c0.468,0 0.912,-0.108 1.248,-0.444c0.18,-0.18 0.324,-0.42 0.444,-0.756l2.688,-7.296Z" style="fill:white;fill-rule:nonzero;"/>
        <path d="M35.848,118.159c0,-1.068 -0.66,-1.62 -1.92,-1.728l-0.852,-0.072c-0.6,-0.06 -0.84,-0.276 -0.84,-0.696c0,-0.468 0.36,-0.78 1.104,-0.78c0.576,0 1.116,0.12 1.5,0.444l0.768,-0.78c-0.564,-0.492 -1.332,-0.684 -2.256,-0.684c-1.272,0 -2.292,0.66 -2.292,1.86c0,1.068 0.648,1.572 1.8,1.68l0.972,0.084c0.588,0.06 0.816,0.3 0.816,0.72c0,0.576 -0.576,0.84 -1.332,0.84c-0.6,0 -1.26,-0.132 -1.752,-0.636l-0.804,0.804c0.72,0.708 1.56,0.876 2.556,0.876c1.452,0 2.532,-0.66 2.532,-1.932Z" style="fill:white;fill-rule:nonzero;"/>
        <path d="M39.724,120.019l0,-1.044l-0.54,0c-0.492,0 -0.66,-0.24 -0.66,-0.708l0,-6.792l-1.224,0l0,6.864c0,0.9 0.504,1.68 1.668,1.68l0.756,0Z" style="fill:white;fill-rule:nonzero;"/>
        <path d="M45.736,116.971c0,-1.02 -0.144,-1.788 -0.72,-2.388c-0.396,-0.408 -0.996,-0.72 -1.824,-0.72c-0.828,0 -1.416,0.312 -1.812,0.72c-0.576,0.6 -0.72,1.368 -0.72,2.388c0,1.032 0.144,1.8 0.72,2.4c0.396,0.408 0.984,0.72 1.812,0.72c0.828,0 1.428,-0.312 1.824,-0.72c0.576,-0.6 0.72,-1.368 0.72,-2.4Zm-1.224,0c0,0.66 -0.048,1.296 -0.42,1.668c-0.228,0.228 -0.54,0.36 -0.9,0.36c-0.36,0 -0.66,-0.132 -0.888,-0.36c-0.372,-0.372 -0.42,-1.008 -0.42,-1.668c0,-0.66 0.048,-1.296 0.42,-1.668c0.228,-0.228 0.528,-0.348 0.888,-0.348c0.36,0 0.672,0.12 0.9,0.348c0.372,0.372 0.42,1.008 0.42,1.668Z" style="fill:white;fill-rule:nonzero;"/>
        <path d="M52.372,116.971c0,-0.996 -0.096,-1.968 -0.684,-2.568c-0.336,-0.336 -0.864,-0.54 -1.488,-0.54c-0.648,0 -1.152,0.168 -1.608,0.72l0,-0.648l-1.2,0l0,8.544l1.224,0l0,-3.084c0.444,0.54 0.948,0.696 1.596,0.696c0.624,0 1.14,-0.204 1.476,-0.54c0.588,-0.6 0.684,-1.584 0.684,-2.58Zm-1.224,0c0,1.08 -0.156,2.028 -1.26,2.028c-1.116,0 -1.272,-0.948 -1.272,-2.028c0,-1.08 0.156,-2.016 1.272,-2.016c1.104,0 1.26,0.936 1.26,2.016Z" style="fill:white;fill-rule:nonzero;"/>
        <path d="M58.876,117.331l0,-0.516c0,-1.776 -0.948,-2.952 -2.58,-2.952c-1.56,0 -2.58,1.128 -2.58,3.108c0,2.316 1.212,3.12 2.736,3.12c1.068,0 1.656,-0.324 2.28,-0.948l-0.78,-0.732c-0.432,0.432 -0.792,0.624 -1.476,0.624c-1.008,0 -1.548,-0.648 -1.548,-1.704l3.948,0Zm-1.212,-0.852l-2.736,0c0.012,-0.372 0.036,-0.564 0.156,-0.828c0.204,-0.456 0.624,-0.768 1.212,-0.768c0.576,0 0.996,0.312 1.2,0.768c0.12,0.264 0.144,0.456 0.168,0.828Z" style="fill:white;fill-rule:nonzero;"/>
        <path d="M50.648,251.53c0,-1.068 -0.66,-1.62 -1.92,-1.728l-0.852,-0.072c-0.6,-0.06 -0.84,-0.276 -0.84,-0.696c0,-0.468 0.36,-0.78 1.104,-0.78c0.576,0 1.116,0.12 1.5,0.444l0.768,-0.78c-0.564,-0.492 -1.332,-0.684 -2.256,-0.684c-1.272,0 -2.292,0.66 -2.292,1.86c0,1.068 0.648,1.572 1.8,1.68l0.972,0.084c0.588,0.06 0.816,0.3 0.816,0.72c0,0.576 -0.576,0.84 -1.332,0.84c-0.6,0 -1.26,-0.132 -1.752,-0.636l-0.804,0.804c0.72,0.708 1.56,0.876 2.556,0.876c1.452,0 2.532,-0.66 2.532,-1.932Z" style="fill:white;fill-rule:nonzero;"/>
        <path d="M51.848,250.342c0,0.996 0.096,1.98 0.684,2.58c0.336,0.336 0.852,0.54 1.476,0.54c0.648,0 1.152,-0.156 1.596,-0.696l0,3.084l1.224,0l0,-8.544l-1.2,0l0,0.648c-0.456,-0.552 -0.96,-0.72 -1.608,-0.72c-0.624,0 -1.152,0.204 -1.488,0.54c-0.588,0.6 -0.684,1.572 -0.684,2.568Zm1.224,0c0,-1.08 0.156,-2.016 1.26,-2.016c1.116,0 1.272,0.936 1.272,2.016c0,1.08 -0.156,2.028 -1.272,2.028c-1.104,0 -1.26,-0.948 -1.26,-2.028Z" style="fill:white;fill-rule:nonzero;"/>
        <path d="M63.644,253.39l0,-6.084l-1.224,0l0,3.708c0,0.936 -0.576,1.356 -1.26,1.356c-0.684,0 -1.224,-0.408 -1.224,-1.356l0,-3.708l-1.224,0l0,3.888c0,0.684 0.144,1.26 0.612,1.716c0.36,0.348 0.876,0.552 1.5,0.552c0.612,0 1.2,-0.228 1.62,-0.684l0,0.612l1.2,0Z" style="fill:white;fill-rule:nonzero;"/>
        <path d="M70.064,253.39l0,-4.068c0,-1.368 -0.828,-2.088 -2.508,-2.088c-1.02,0 -1.608,0.216 -2.172,0.888l0.792,0.756c0.348,-0.432 0.684,-0.6 1.332,-0.6c0.96,0 1.332,0.36 1.332,1.14l0,0.432l-1.596,0c-1.404,0 -2.112,0.732 -2.112,1.752c0,0.516 0.168,0.984 0.48,1.308c0.372,0.372 0.876,0.552 1.632,0.552c0.756,0 1.176,-0.18 1.62,-0.624l0,0.552l1.2,0Zm-1.224,-2.196c0,0.432 -0.072,0.72 -0.264,0.9c-0.324,0.3 -0.672,0.348 -1.104,0.348c-0.804,0 -1.152,-0.3 -1.152,-0.864c0,-0.564 0.372,-0.876 1.116,-0.876l1.404,0l0,0.492Z" style="fill:white;fill-rule:nonzero;"/>
        <path d="M76.22,247.81c-0.42,-0.42 -0.864,-0.576 -1.452,-0.576c-0.684,0 -1.308,0.3 -1.62,0.732l0,-0.66l-1.2,0l0,6.084l1.224,0l0,-3.696c0,-0.84 0.552,-1.368 1.212,-1.368c0.42,0 0.636,0.132 0.912,0.408l0.924,-0.924Z" style="fill:white;fill-rule:nonzero;"/>
        <path d="M81.704,250.702l0,-0.516c0,-1.776 -0.948,-2.952 -2.58,-2.952c-1.56,0 -2.58,1.128 -2.58,3.108c0,2.316 1.212,3.12 2.736,3.12c1.068,0 1.656,-0.324 2.28,-0.948l-0.78,-0.732c-0.432,0.432 -0.792,0.624 -1.476,0.624c-1.008,0 -1.548,-0.648 -1.548,-1.704l3.948,0Zm-1.212,-0.852l-2.736,0c0.012,-0.372 0.036,-0.564 0.156,-0.828c0.204,-0.456 0.624,-0.768 1.212,-0.768c0.576,0 0.996,0.312 1.2,0.768c0.12,0.264 0.144,0.456 0.168,0.828Z" style="fill:white;fill-rule:nonzero;"/>
        <path d="M15.672,306.344c-0.42,-0.42 -0.864,-0.576 -1.452,-0.576c-0.684,0 -1.308,0.3 -1.62,0.732l0,-0.66l-1.2,0l0,6.084l1.224,0l0,-3.696c0,-0.84 0.552,-1.368 1.212,-1.368c0.42,0 0.636,0.132 0.912,0.408l0.924,-0.924Z" style="fill:white;fill-rule:nonzero;"/>
        <path d="M21.024,311.924l0,-4.068c0,-1.368 -0.828,-2.088 -2.508,-2.088c-1.02,0 -1.608,0.216 -2.172,0.888l0.792,0.756c0.348,-0.432 0.684,-0.6 1.332,-0.6c0.96,0 1.332,0.36 1.332,1.14l0,0.432l-1.596,0c-1.404,0 -2.112,0.732 -2.112,1.752c0,0.516 0.168,0.984 0.48,1.308c0.372,0.372 0.876,0.552 1.632,0.552c0.756,0 1.176,-0.18 1.62,-0.624l0,0.552l1.2,0Zm-1.224,-2.196c0,0.432 -0.072,0.72 -0.264,0.9c-0.324,0.3 -0.672,0.348 -1.104,0.348c-0.804,0 -1.152,-0.3 -1.152,-0.864c0,-0.564 0.372,-0.876 1.116,-0.876l1.404,0l0,0.492Z" style="fill:white;fill-rule:nonzero;"/>
        <path d="M31.548,311.924l0,-3.888c0,-0.684 -0.18,-1.26 -0.648,-1.716c-0.36,-0.348 -0.912,-0.552 -1.536,-0.552c-0.804,0 -1.416,0.288 -1.908,0.888c-0.384,-0.588 -0.972,-0.888 -1.728,-0.888c-0.612,0 -1.212,0.24 -1.62,0.684l0,-0.612l-1.2,0l0,6.084l1.224,0l0,-3.708c0,-0.936 0.576,-1.356 1.26,-1.356c0.684,0 1.224,0.408 1.224,1.356l0,3.708l1.224,0l0,-3.768c0,-0.876 0.6,-1.296 1.26,-1.296c0.684,0 1.224,0.408 1.224,1.356l0,3.708l1.224,0Z" style="fill:white;fill-rule:nonzero;"/>
        <path d="M38.412,308.876c0,-0.996 -0.096,-1.968 -0.684,-2.568c-0.336,-0.336 -0.864,-0.54 -1.488,-0.54c-0.648,0 -1.152,0.168 -1.608,0.72l0,-0.648l-1.2,0l0,8.544l1.224,0l0,-3.084c0.444,0.54 0.948,0.696 1.596,0.696c0.624,0 1.14,-0.204 1.476,-0.54c0.588,-0.6 0.684,-1.584 0.684,-2.58Zm-1.224,0c0,1.08 -0.156,2.028 -1.26,2.028c-1.116,0 -1.272,-0.948 -1.272,-2.028c0,-1.08 0.156,-2.016 1.272,-2.016c1.104,0 1.26,0.936 1.26,2.016Z" style="fill:white;fill-rule:nonzero;"/>
        <path d="M58.058,310.064c0,-1.068 -0.66,-1.62 -1.92,-1.728l-0.852,-0.072c-0.6,-0.06 -0.84,-0.276 -0.84,-0.696c0,-0.468 0.36,-0.78 1.104,-0.78c0.576,0 1.116,0.12 1.5,0.444l0.768,-0.78c-0.564,-0.492 -1.332,-0.684 -2.256,-0.684c-1.272,0 -2.292,0.66 -2.292,1.86c0,1.068 0.648,1.572 1.8,1.68l0.972,0.084c0.588,0.06 0.816,0.3 0.816,0.72c0,0.576 -0.576,0.84 -1.332,0.84c-0.6,0 -1.26,-0.132 -1.752,-0.636l-0.804,0.804c0.72,0.708 1.56,0.876 2.556,0.876c1.452,0 2.532,-0.66 2.532,-1.932Z" style="fill:white;fill-rule:nonzero;"/>
        <path d="M64.022,311.924l0,-4.068c0,-1.368 -0.828,-2.088 -2.508,-2.088c-1.02,0 -1.608,0.216 -2.172,0.888l0.792,0.756c0.348,-0.432 0.684,-0.6 1.332,-0.6c0.96,0 1.332,0.36 1.332,1.14l0,0.432l-1.596,0c-1.404,0 -2.112,0.732 -2.112,1.752c0,0.516 0.168,0.984 0.48,1.308c0.372,0.372 0.876,0.552 1.632,0.552c0.756,0 1.176,-0.18 1.62,-0.624l0,0.552l1.2,0Zm-1.224,-2.196c0,0.432 -0.072,0.72 -0.264,0.9c-0.324,0.3 -0.672,0.348 -1.104,0.348c-0.804,0 -1.152,-0.3 -1.152,-0.864c0,-0.564 0.372,-0.876 1.116,-0.876l1.404,0l0,0.492Z" style="fill:white;fill-rule:nonzero;"/>
        <path d="M73.754,305.84l-1.308,0l-1.176,4.284l-1.404,-4.284l-0.948,0l-1.416,4.284l-1.176,-4.284l-1.296,0l1.884,6.084l1.056,0l1.416,-4.248l1.428,4.248l1.044,0l1.896,-6.084Z" style="fill:white;fill-rule:nonzero;"/>
    </g>
</svg>
