<?xml version="1.0" encoding="UTF-8" standalone="no"?>
<!DOCTYPE svg PUBLIC "-//W3C//DTD SVG 1.1//EN" "http://www.w3.org/Graphics/SVG/1.1/DTD/svg11.dtd">
<svg width="90px" height="380px" version="1.1" xmlns="http://www.w3.org/2000/svg" xmlns:xlink="http://www.w3.org/1999/xlink" xml:space="preserve" xmlns:serif="http://www.serif.com/" style="fill-rule:evenodd;clip-rule:evenodd;stroke-linejoin:round;stroke-miterlimit:1.41421;">
    <g>
        <rect x="-0.174" y="0" width="90.5" height="380.504" style="fill:rgb(32,32,32);"/>
        <path d="M19.08,251.746c0,-1.128 -0.732,-1.416 -1.692,-1.512l-0.936,-0.084c-0.816,-0.084 -1.176,-0.36 -1.176,-0.972c0,-0.72 0.516,-1.116 1.476,-1.116c0.636,0 1.176,0.168 1.62,0.492l0.408,-0.408c-0.516,-0.384 -1.224,-0.612 -2.028,-0.612c-1.26,0 -2.076,0.636 -2.076,1.644c0,0.912 0.576,1.416 1.74,1.512l0.96,0.084c0.768,0.072 1.104,0.36 1.104,0.972c0,0.78 -0.6,1.176 -1.74,1.176c-0.816,0 -1.452,-0.24 -1.896,-0.708l-0.42,0.42c0.588,0.564 1.332,0.828 2.34,0.828c1.428,0 2.316,-0.66 2.316,-1.716Z" style="fill:white;fill-rule:nonzero;"/>
        <path d="M21.528,253.39l0,-5.784l-0.612,0l0,5.784l0.612,0Zm0.072,-7.788l0,-0.756l-0.756,0l0,0.756l0.756,0Z" style="fill:white;fill-rule:nonzero;"/>
        <path d="M28.308,253.39l0,-3.696c0,-0.684 -0.204,-1.224 -0.6,-1.608c-0.384,-0.372 -0.9,-0.552 -1.536,-0.552c-0.708,0 -1.272,0.252 -1.704,0.756l0,-0.684l-0.612,0l0,5.784l0.612,0l0,-3.588c0,-1.104 0.588,-1.728 1.632,-1.728c1.044,0 1.596,0.612 1.596,1.728l0,3.588l0.612,0Z" style="fill:white;fill-rule:nonzero;"/>
        <path d="M34.86,250.63l0,-0.276c0,-1.776 -0.864,-2.82 -2.316,-2.82c-1.452,0 -2.316,1.092 -2.316,2.964c0,1.932 0.864,2.964 2.46,2.964c0.96,0 1.5,-0.3 2.088,-0.888l-0.456,-0.36c-0.492,0.492 -0.912,0.696 -1.596,0.696c-1.236,0 -1.884,-0.804 -1.884,-2.28l4.02,0Zm-0.612,-0.492l-3.408,0c0.036,-0.552 0.048,-0.744 0.204,-1.092c0.276,-0.6 0.828,-0.972 1.5,-0.972c0.672,0 1.248,0.36 1.5,0.972c0.156,0.348 0.168,0.54 0.204,1.092Z" style="fill:white;fill-rule:nonzero;"/>
        <path d="M32.08,199.014l0,-6.108l-0.612,0l0,0.744c-0.516,-0.672 -1.056,-0.816 -1.716,-0.816c-0.612,0 -1.116,0.204 -1.416,0.504c-0.588,0.588 -0.744,1.548 -0.744,2.46c0,0.912 0.156,1.872 0.744,2.46c0.3,0.3 0.804,0.504 1.416,0.504c0.66,0 1.2,-0.144 1.716,-0.816l0,1.032c0,1.152 -0.54,2.004 -1.752,2.004c-0.732,0 -1.044,-0.216 -1.5,-0.636l-0.408,0.408c0.6,0.54 1.044,0.768 1.908,0.768c1.5,0 2.364,-1.056 2.364,-2.508Zm-0.612,-3.216c0,1.2 -0.216,2.424 -1.632,2.424c-1.416,0 -1.632,-1.224 -1.632,-2.424c0,-1.2 0.216,-2.424 1.632,-2.424c1.416,0 1.632,1.224 1.632,2.424Z" style="fill:white;fill-rule:nonzero;"/>
        <path d="M38.416,198.69l0,-3.96c0,-1.212 -0.708,-1.896 -2.244,-1.896c-0.948,0 -1.548,0.204 -2.04,0.888l0.444,0.384c0.372,-0.528 0.78,-0.732 1.596,-0.732c1.188,0 1.632,0.492 1.632,1.416l0,0.648l-1.872,0c-1.26,0 -2.016,0.612 -2.016,1.668c0,0.432 0.144,0.852 0.42,1.128c0.372,0.384 0.84,0.528 1.704,0.528c0.816,0 1.272,-0.156 1.764,-0.648l0,0.576l0.612,0Zm-0.612,-2.016c0,0.528 -0.108,0.9 -0.324,1.104c-0.42,0.396 -0.912,0.444 -1.44,0.444c-1.056,0 -1.512,-0.36 -1.512,-1.128c0,-0.78 0.492,-1.164 1.476,-1.164l1.8,0l0,0.744Z" style="fill:white;fill-rule:nonzero;"/>
        <path d="M42.76,198.69l0,-0.54l-0.42,0c-0.612,0 -0.888,-0.348 -0.888,-0.96l0,-3.828l1.308,0l0,-0.456l-1.308,0l0,-1.848l-0.612,0l0,1.848l-0.792,0l0,0.456l0.792,0l0,3.816c0,0.876 0.48,1.512 1.392,1.512l0.528,0Z" style="fill:white;fill-rule:nonzero;"/>
        <path d="M48.832,195.93l0,-0.276c0,-1.776 -0.864,-2.82 -2.316,-2.82c-1.452,0 -2.316,1.092 -2.316,2.964c0,1.932 0.864,2.964 2.46,2.964c0.96,0 1.5,-0.3 2.088,-0.888l-0.456,-0.36c-0.492,0.492 -0.912,0.696 -1.596,0.696c-1.236,0 -1.884,-0.804 -1.884,-2.28l4.02,0Zm-0.612,-0.492l-3.408,0c0.036,-0.552 0.048,-0.744 0.204,-1.092c0.276,-0.6 0.828,-0.972 1.5,-0.972c0.672,0 1.248,0.36 1.5,0.972c0.156,0.348 0.168,0.54 0.204,1.092Z" style="fill:white;fill-rule:nonzero;"/>
        <path d="M54.484,198.69l0,-5.784l-0.612,0l0,5.784l0.612,0Zm0.072,-7.788l0,-0.756l-0.756,0l0,0.756l0.756,0Z" style="fill:white;fill-rule:nonzero;"/>
        <path d="M61.264,198.69l0,-3.696c0,-0.684 -0.204,-1.224 -0.6,-1.608c-0.384,-0.372 -0.9,-0.552 -1.536,-0.552c-0.708,0 -1.272,0.252 -1.704,0.756l0,-0.684l-0.612,0l0,5.784l0.612,0l0,-3.588c0,-1.104 0.588,-1.728 1.632,-1.728c1.044,0 1.596,0.612 1.596,1.728l0,3.588l0.612,0Z" style="fill:white;fill-rule:nonzero;"/>
        <path d="M22.288,31.974l0,-0.456l-1.308,0l0,-1.26c0,-0.612 0.276,-0.96 0.888,-0.96l0.42,0l0,-0.54l-0.528,0c-0.912,0 -1.392,0.636 -1.392,1.512l0,1.248l-0.792,0l0,0.456l0.792,0l0,5.328l0.612,0l0,-5.328l1.308,0Z" style="fill:white;fill-rule:nonzero;"/>
        <path d="M27.088,32.442l0.444,-0.444c-0.42,-0.42 -0.828,-0.552 -1.392,-0.552c-0.684,0 -1.356,0.3 -1.692,0.84l0,-0.768l-0.612,0l0,5.784l0.612,0l0,-3.564c0,-0.924 0.552,-1.752 1.548,-1.752c0.48,0 0.744,0.108 1.092,0.456Z" style="fill:white;fill-rule:nonzero;"/>
        <path d="M32.68,34.542l0,-0.276c0,-1.776 -0.864,-2.82 -2.316,-2.82c-1.452,0 -2.316,1.092 -2.316,2.964c0,1.932 0.864,2.964 2.46,2.964c0.96,0 1.5,-0.3 2.088,-0.888l-0.456,-0.36c-0.492,0.492 -0.912,0.696 -1.596,0.696c-1.236,0 -1.884,-0.804 -1.884,-2.28l4.02,0Zm-0.612,-0.492l-3.408,0c0.036,-0.552 0.048,-0.744 0.204,-1.092c0.276,-0.6 0.828,-0.972 1.5,-0.972c0.672,0 1.248,0.36 1.5,0.972c0.156,0.348 0.168,0.54 0.204,1.092Z" style="fill:white;fill-rule:nonzero;"/>
        <path d="M38.812,40.062l0,-8.544l-0.612,0l0,0.744c-0.516,-0.672 -1.056,-0.816 -1.716,-0.816c-0.612,0 -1.116,0.204 -1.416,0.504c-0.588,0.588 -0.744,1.548 -0.744,2.46c0,0.912 0.156,1.872 0.744,2.46c0.3,0.3 0.804,0.504 1.416,0.504c0.66,0 1.2,-0.144 1.716,-0.816l0,3.504l0.612,0Zm-0.612,-5.652c0,1.2 -0.216,2.424 -1.632,2.424c-1.416,0 -1.632,-1.224 -1.632,-2.424c0,-1.2 0.216,-2.424 1.632,-2.424c1.416,0 1.632,1.224 1.632,2.424Z" style="fill:white;fill-rule:nonzero;"/>
        <path d="M45.52,37.302l0,-5.784l-0.612,0l0,3.588c0,1.104 -0.588,1.728 -1.632,1.728c-1.044,0 -1.596,-0.612 -1.596,-1.728l0,-3.588l-0.612,0l0,3.696c0,0.684 0.204,1.224 0.6,1.608c0.384,0.372 0.9,0.552 1.536,0.552c0.708,0 1.272,-0.252 1.704,-0.756l0,0.684l0.612,0Z" style="fill:white;fill-rule:nonzero;"/>
        <path d="M52.144,34.542l0,-0.276c0,-1.776 -0.864,-2.82 -2.316,-2.82c-1.452,0 -2.316,1.092 -2.316,2.964c0,1.932 0.864,2.964 2.46,2.964c0.96,0 1.5,-0.3 2.088,-0.888l-0.456,-0.36c-0.492,0.492 -0.912,0.696 -1.596,0.696c-1.236,0 -1.884,-0.804 -1.884,-2.28l4.02,0Zm-0.612,-0.492l-3.408,0c0.036,-0.552 0.048,-0.744 0.204,-1.092c0.276,-0.6 0.828,-0.972 1.5,-0.972c0.672,0 1.248,0.36 1.5,0.972c0.156,0.348 0.168,0.54 0.204,1.092Z" style="fill:white;fill-rule:nonzero;"/>
        <path d="M58.576,37.302l0,-3.696c0,-0.684 -0.204,-1.224 -0.6,-1.608c-0.384,-0.372 -0.9,-0.552 -1.536,-0.552c-0.708,0 -1.272,0.252 -1.704,0.756l0,-0.684l-0.612,0l0,5.784l0.612,0l0,-3.588c0,-1.104 0.588,-1.728 1.632,-1.728c1.044,0 1.596,0.612 1.596,1.728l0,3.588l0.612,0Z" style="fill:white;fill-rule:nonzero;"/>
        <path d="M64.948,36.486l-0.42,-0.384c-0.492,0.54 -0.876,0.732 -1.488,0.732c-0.66,0 -1.188,-0.252 -1.536,-0.768c-0.288,-0.42 -0.396,-0.876 -0.396,-1.656c0,-0.78 0.108,-1.236 0.396,-1.656c0.348,-0.516 0.876,-0.768 1.536,-0.768c0.612,0 0.996,0.18 1.488,0.732l0.42,-0.384c-0.612,-0.684 -1.116,-0.888 -1.908,-0.888c-1.584,0 -2.544,1.128 -2.544,2.964c0,1.836 0.96,2.964 2.544,2.964c0.792,0 1.296,-0.204 1.908,-0.888Z" style="fill:white;fill-rule:nonzero;"/>
        <path d="M70.576,31.518l-0.672,0l-1.74,5.064l-1.74,-5.064l-0.672,0l2.112,5.784l-0.468,1.284c-0.204,0.576 -0.396,0.792 -1.056,0.792l-0.228,0l0,0.54l0.288,0c0.384,0 0.804,-0.096 1.092,-0.372c0.156,-0.132 0.288,-0.36 0.396,-0.672l2.688,-7.356Z" style="fill:white;fill-rule:nonzero;"/>
        <path d="M35.632,118.375c0,-1.128 -0.732,-1.416 -1.692,-1.512l-0.936,-0.084c-0.816,-0.084 -1.176,-0.36 -1.176,-0.972c0,-0.72 0.516,-1.116 1.476,-1.116c0.636,0 1.176,0.168 1.62,0.492l0.408,-0.408c-0.516,-0.384 -1.224,-0.612 -2.028,-0.612c-1.26,0 -2.076,0.636 -2.076,1.644c0,0.912 0.576,1.416 1.74,1.512l0.96,0.084c0.768,0.072 1.104,0.36 1.104,0.972c0,0.78 -0.6,1.176 -1.74,1.176c-0.816,0 -1.452,-0.24 -1.896,-0.708l-0.42,0.42c0.588,0.564 1.332,0.828 2.34,0.828c1.428,0 2.316,-0.66 2.316,-1.716Z" style="fill:white;fill-rule:nonzero;"/>
        <path d="M39.364,120.019l0,-0.54l-0.42,0c-0.684,0 -0.888,-0.312 -0.888,-0.972l0,-7.032l-0.612,0l0,7.044c0,0.912 0.444,1.5 1.392,1.5l0.528,0Z" style="fill:white;fill-rule:nonzero;"/>
        <path d="M45.112,117.127c0,-0.828 -0.108,-1.716 -0.72,-2.328c-0.42,-0.42 -0.96,-0.636 -1.608,-0.636c-0.648,0 -1.188,0.216 -1.608,0.636c-0.612,0.612 -0.72,1.5 -0.72,2.328c0,0.828 0.108,1.716 0.72,2.328c0.42,0.42 0.96,0.636 1.608,0.636c0.648,0 1.188,-0.216 1.608,-0.636c0.612,-0.612 0.72,-1.5 0.72,-2.328Zm-0.612,0c0,0.672 -0.036,1.452 -0.516,1.932c-0.324,0.324 -0.732,0.492 -1.2,0.492c-0.468,0 -0.876,-0.168 -1.2,-0.492c-0.48,-0.48 -0.516,-1.26 -0.516,-1.932c0,-0.672 0.036,-1.452 0.516,-1.932c0.324,-0.324 0.732,-0.492 1.2,-0.492c0.468,0 0.876,0.168 1.2,0.492c0.48,0.48 0.516,1.26 0.516,1.932Z" style="fill:white;fill-rule:nonzero;"/>
        <path d="M51.592,117.127c0,-0.912 -0.156,-1.872 -0.744,-2.46c-0.3,-0.3 -0.804,-0.504 -1.416,-0.504c-0.66,0 -1.2,0.144 -1.716,0.816l0,-0.744l-0.612,0l0,8.544l0.612,0l0,-3.504c0.516,0.672 1.056,0.816 1.716,0.816c0.612,0 1.116,-0.204 1.416,-0.504c0.588,-0.588 0.744,-1.548 0.744,-2.46Zm-0.612,0c0,1.2 -0.216,2.424 -1.632,2.424c-1.416,0 -1.632,-1.224 -1.632,-2.424c0,-1.2 0.216,-2.424 1.632,-2.424c1.416,0 1.632,1.224 1.632,2.424Z" style="fill:white;fill-rule:nonzero;"/>
        <path d="M57.88,117.259l0,-0.276c0,-1.776 -0.864,-2.82 -2.316,-2.82c-1.452,0 -2.316,1.092 -2.316,2.964c0,1.932 0.864,2.964 2.46,2.964c0.96,0 1.5,-0.3 2.088,-0.888l-0.456,-0.36c-0.492,0.492 -0.912,0.696 -1.596,0.696c-1.236,0 -1.884,-0.804 -1.884,-2.28l4.02,0Zm-0.612,-0.492l-3.408,0c0.036,-0.552 0.048,-0.744 0.204,-1.092c0.276,-0.6 0.828,-0.972 1.5,-0.972c0.672,0 1.248,0.36 1.5,0.972c0.156,0.348 0.168,0.54 0.204,1.092Z" style="fill:white;fill-rule:nonzero;"/>
        <path d="M50.432,251.746c0,-1.128 -0.732,-1.416 -1.692,-1.512l-0.936,-0.084c-0.816,-0.084 -1.176,-0.36 -1.176,-0.972c0,-0.72 0.516,-1.116 1.476,-1.116c0.636,0 1.176,0.168 1.62,0.492l0.408,-0.408c-0.516,-0.384 -1.224,-0.612 -2.028,-0.612c-1.26,0 -2.076,0.636 -2.076,1.644c0,0.912 0.576,1.416 1.74,1.512l0.96,0.084c0.768,0.072 1.104,0.36 1.104,0.972c0,0.78 -0.6,1.176 -1.74,1.176c-0.816,0 -1.452,-0.24 -1.896,-0.708l-0.42,0.42c0.588,0.564 1.332,0.828 2.34,0.828c1.428,0 2.316,-0.66 2.316,-1.716Z" style="fill:white;fill-rule:nonzero;"/>
        <path d="M56.42,256.15l0,-8.544l-0.612,0l0,0.744c-0.516,-0.672 -1.056,-0.816 -1.716,-0.816c-0.612,0 -1.116,0.204 -1.416,0.504c-0.588,0.588 -0.744,1.548 -0.744,2.46c0,0.912 0.156,1.872 0.744,2.46c0.3,0.3 0.804,0.504 1.416,0.504c0.66,0 1.2,-0.144 1.716,-0.816l0,3.504l0.612,0Zm-0.612,-5.652c0,1.2 -0.216,2.424 -1.632,2.424c-1.416,0 -1.632,-1.224 -1.632,-2.424c0,-1.2 0.216,-2.424 1.632,-2.424c1.416,0 1.632,1.224 1.632,2.424Z" style="fill:white;fill-rule:nonzero;"/>
        <path d="M63.128,253.39l0,-5.784l-0.612,0l0,3.588c0,1.104 -0.588,1.728 -1.632,1.728c-1.044,0 -1.596,-0.612 -1.596,-1.728l0,-3.588l-0.612,0l0,3.696c0,0.684 0.204,1.224 0.6,1.608c0.384,0.372 0.9,0.552 1.536,0.552c0.708,0 1.272,-0.252 1.704,-0.756l0,0.684l0.612,0Z" style="fill:white;fill-rule:nonzero;"/>
        <path d="M69.464,253.39l0,-3.96c0,-1.212 -0.708,-1.896 -2.244,-1.896c-0.948,0 -1.548,0.204 -2.04,0.888l0.444,0.384c0.372,-0.528 0.78,-0.732 1.596,-0.732c1.188,0 1.632,0.492 1.632,1.416l0,0.648l-1.872,0c-1.26,0 -2.016,0.612 -2.016,1.668c0,0.432 0.144,0.852 0.42,1.128c0.372,0.384 0.84,0.528 1.704,0.528c0.816,0 1.272,-0.156 1.764,-0.648l0,0.576l0.612,0Zm-0.612,-2.016c0,0.528 -0.108,0.9 -0.324,1.104c-0.42,0.396 -0.912,0.444 -1.44,0.444c-1.056,0 -1.512,-0.36 -1.512,-1.128c0,-0.78 0.492,-1.164 1.476,-1.164l1.8,0l0,0.744Z" style="fill:white;fill-rule:nonzero;"/>
        <path d="M74.996,248.53l0.444,-0.444c-0.42,-0.42 -0.828,-0.552 -1.392,-0.552c-0.684,0 -1.356,0.3 -1.692,0.84l0,-0.768l-0.612,0l0,5.784l0.612,0l0,-3.564c0,-0.924 0.552,-1.752 1.548,-1.752c0.48,0 0.744,0.108 1.092,0.456Z" style="fill:white;fill-rule:nonzero;"/>
        <path d="M80.588,250.63l0,-0.276c0,-1.776 -0.864,-2.82 -2.316,-2.82c-1.452,0 -2.316,1.092 -2.316,2.964c0,1.932 0.864,2.964 2.46,2.964c0.96,0 1.5,-0.3 2.088,-0.888l-0.456,-0.36c-0.492,0.492 -0.912,0.696 -1.596,0.696c-1.236,0 -1.884,-0.804 -1.884,-2.28l4.02,0Zm-0.612,-0.492l-3.408,0c0.036,-0.552 0.048,-0.744 0.204,-1.092c0.276,-0.6 0.828,-0.972 1.5,-0.972c0.672,0 1.248,0.36 1.5,0.972c0.156,0.348 0.168,0.54 0.204,1.092Z" style="fill:white;fill-rule:nonzero;"/>
        <path d="M14.844,307.064l0.444,-0.444c-0.42,-0.42 -0.828,-0.552 -1.392,-0.552c-0.684,0 -1.356,0.3 -1.692,0.84l0,-0.768l-0.612,0l0,5.784l0.612,0l0,-3.564c0,-0.924 0.552,-1.752 1.548,-1.752c0.48,0 0.744,0.108 1.092,0.456Z" style="fill:white;fill-rule:nonzero;"/>
        <path d="M20.388,311.924l0,-3.96c0,-1.212 -0.708,-1.896 -2.244,-1.896c-0.948,0 -1.548,0.204 -2.04,0.888l0.444,0.384c0.372,-0.528 0.78,-0.732 1.596,-0.732c1.188,0 1.632,0.492 1.632,1.416l0,0.648l-1.872,0c-1.26,0 -2.016,0.612 -2.016,1.668c0,0.432 0.144,0.852 0.42,1.128c0.372,0.384 0.84,0.528 1.704,0.528c0.816,0 1.272,-0.156 1.764,-0.648l0,0.576l0.612,0Zm-0.612,-2.016c0,0.528 -0.108,0.9 -0.324,1.104c-0.42,0.396 -0.912,0.444 -1.44,0.444c-1.056,0 -1.512,-0.36 -1.512,-1.128c0,-0.78 0.492,-1.164 1.476,-1.164l1.8,0l0,0.744Z" style="fill:white;fill-rule:nonzero;"/>
        <path d="M30.96,311.924l0,-3.696c0,-0.684 -0.216,-1.224 -0.612,-1.608c-0.372,-0.348 -0.888,-0.552 -1.524,-0.552c-0.864,0 -1.536,0.372 -1.968,1.056c-0.348,-0.684 -0.996,-1.056 -1.86,-1.056c-0.708,0 -1.284,0.252 -1.716,0.756l0,-0.684l-0.612,0l0,5.784l0.612,0l0,-3.588c0,-1.104 0.588,-1.728 1.632,-1.728c1.044,0 1.596,0.612 1.596,1.728l0,3.588l0.612,0l0,-3.696c0,-0.996 0.624,-1.62 1.632,-1.62c1.044,0 1.596,0.612 1.596,1.728l0,3.588l0.612,0Z" style="fill:white;fill-rule:nonzero;"/>
        <path d="M37.692,309.032c0,-0.912 -0.156,-1.872 -0.744,-2.46c-0.3,-0.3 -0.804,-0.504 -1.416,-0.504c-0.66,0 -1.2,0.144 -1.716,0.816l0,-0.744l-0.612,0l0,8.544l0.612,0l0,-3.504c0.516,0.672 1.056,0.816 1.716,0.816c0.612,0 1.116,-0.204 1.416,-0.504c0.588,-0.588 0.744,-1.548 0.744,-2.46Zm-0.612,0c0,1.2 -0.216,2.424 -1.632,2.424c-1.416,0 -1.632,-1.224 -1.632,-2.424c0,-1.2 0.216,-2.424 1.632,-2.424c1.416,0 1.632,1.224 1.632,2.424Z" style="fill:white;fill-rule:nonzero;"/>
        <path d="M57.842,310.28c0,-1.128 -0.732,-1.416 -1.692,-1.512l-0.936,-0.084c-0.816,-0.084 -1.176,-0.36 -1.176,-0.972c0,-0.72 0.516,-1.116 1.476,-1.116c0.636,0 1.176,0.168 1.62,0.492l0.408,-0.408c-0.516,-0.384 -1.224,-0.612 -2.028,-0.612c-1.26,0 -2.076,0.636 -2.076,1.644c0,0.912 0.576,1.416 1.74,1.512l0.96,0.084c0.768,0.072 1.104,0.36 1.104,0.972c0,0.78 -0.6,1.176 -1.74,1.176c-0.816,0 -1.452,-0.24 -1.896,-0.708l-0.42,0.42c0.588,0.564 1.332,0.828 2.34,0.828c1.428,0 2.316,-0.66 2.316,-1.716Z" style="fill:white;fill-rule:nonzero;"/>
        <path d="M63.686,311.924l0,-3.96c0,-1.212 -0.708,-1.896 -2.244,-1.896c-0.948,0 -1.548,0.204 -2.04,0.888l0.444,0.384c0.372,-0.528 0.78,-0.732 1.596,-0.732c1.188,0 1.632,0.492 1.632,1.416l0,0.648l-1.872,0c-1.26,0 -2.016,0.612 -2.016,1.668c0,0.432 0.144,0.852 0.42,1.128c0.372,0.384 0.84,0.528 1.704,0.528c0.816,0 1.272,-0.156 1.764,-0.648l0,0.576l0.612,0Zm-0.612,-2.016c0,0.528 -0.108,0.9 -0.324,1.104c-0.42,0.396 -0.912,0.444 -1.44,0.444c-1.056,0 -1.512,-0.36 -1.512,-1.128c0,-0.78 0.492,-1.164 1.476,-1.164l1.8,0l0,0.744Z" style="fill:white;fill-rule:nonzero;"/>
        <path d="M73.178,306.14l-0.672,0l-1.476,5.064l-1.656,-5.064l-0.6,0l-1.656,5.064l-1.476,-5.064l-0.672,0l1.848,5.784l0.624,0l1.632,-4.824l1.632,4.824l0.624,0l1.848,-5.784Z" style="fill:white;fill-rule:nonzero;"/>
    </g>
</svg>
